# xmcd
#
# Track frame offsets:
#	150
#	18149
#	32836
#	48928
#	65053
#	79222
#	95760
#	108044
#	121429
#	157291
#	177760
#
# Disc length: 2500 seconds
#
# Revision: 0
# Processed by: cddbd v1.5.1PL0 Copyright (c) Steve Scherf et al.
# Submitted via: dBpowerAMP V4.0
#
DISCID=8d09c20b
DTITLE=New Grass Revival - Friday Night in America
DYEAR=1900
DGENRE=Bluegrass
TTITLE0=Friday Night in America
TTITLE1=You Plaint Your Fields
TTITLE2=Let´s Make a Baby King
TTITLE3=Do What You Gotta Do
TTITLE4=Let Me Be Your Man
TTITLE5=Lila
TTITLE6=Callin´ Baton Rouge
TTITLE7=Whatever Way the Wind Blows
TTITLE8=Big Foot
TTITLE9=Angel Eyes
TTITLE10=I´m Down
EXTD=
EXTT0=
EXTT1=
EXTT2=
EXTT3=
EXTT4=
EXTT5=
EXTT6=
EXTT7=
EXTT8=
EXTT9=
EXTT10=
PLAYORDER=
